<svg xmlns="http://www.w3.org/2000/svg" xmlns:xlink="http://www.w3.org/1999/xlink" xmlns:xodm="http://www.corel.com/coreldraw/odm/2003" xml:space="preserve" width="37.4914mm" height="38.3956mm" version="1.1" style="shape-rendering:geometricPrecision; text-rendering:geometricPrecision; image-rendering:optimizeQuality; fill-rule:evenodd; clip-rule:evenodd" viewBox="0 0 52.37 53.63"> <defs> <style type="text/css"> .str0 {stroke:#1F1B20;stroke-width:0.28;stroke-miterlimit:22.9256} .fil0 {fill:#1F1B20} </style> </defs> <g id="Слой_x0020_1"> <metadata id="CorelCorpID_0Corel-Layer"/> <path class="fil0 str0" d="M15.34 5.08c-0.16,0.21 -0.41,0.31 -0.58,0.53 -0.18,0.23 -0.28,0.44 -0.39,0.74 -0.1,0.28 -0.11,0.71 -0,1 0.13,0.36 0.3,0.4 0.44,0.65l-1.47 1.32c-0.5,0.47 -0.96,0.95 -1.4,1.47 -0.11,0.13 -0.5,0.65 -0.65,0.75 -0.44,0.27 -0.48,0.2 -0.71,0.71 -0.1,0.22 -0.09,0.37 -0.16,0.53 -0.17,0.37 -0.64,0.89 -0.83,1.32 -0.36,-0.03 -0.81,-0.52 -1.8,-0.29 -0.22,0.05 -0.36,0.16 -0.53,0.2 -0.12,-0.21 -0.2,-1.97 -1.66,-1.99 -1.02,-0.02 -1.68,0.98 -1.73,1.94 -0.4,-0.02 -1.92,-0.72 -2.61,0.54 -0.71,1.28 0.79,2.35 0.85,2.44 -0.11,0.22 -0.58,0.46 -0.84,0.93 -0.75,1.4 0.52,2.71 2.17,2.14 0.01,-0 0.15,-0.05 0.16,-0.05 0.42,-0.06 0.25,0.56 0.58,1.11 0.18,0.29 0.5,0.57 0.77,0.69 1.14,0.5 1.59,-0.48 1.98,-0.67 0.01,0.43 -0.09,0.87 -0.13,1.33 -0.05,0.57 -0.95,1.49 0.26,2.66 0.14,0.13 0.3,0.21 0.4,0.35 -0.1,0.25 -0.66,0.53 -0.92,1.15 -0.28,0.66 0.07,1.16 0.07,1.86l-0.02 24.09c-1.44,0.1 -3.91,0.01 -5.52,0.01 -0.3,-0 -0.61,-0.05 -0.79,0.12 -0.2,0.19 -0.2,0.53 0.02,0.7 0.28,0.22 3.05,0.1 3.63,0.1l11.15 0c0.32,0 0.62,0.05 0.82,-0.1 0.18,-0.13 0.29,-0.44 0.08,-0.66 -0.31,-0.32 -1.21,-0.17 -1.7,-0.17 -1.18,0 -2.55,0.06 -3.71,-0.01 -0.1,-0.42 -0.03,-10.32 -0.03,-11.03 0,-3.69 -0.06,-7.44 0,-11.12 0.97,-0.04 1.45,-0.31 1.81,-1.15 0.24,-0.58 -0.02,-1 0.47,-0.78 0.1,0.05 0.22,0.1 0.32,0.12 0.72,0.18 1.63,-0.03 1.99,-0.67 0.26,-0.46 0.21,-1.05 -0.02,-1.5 -0.25,-0.48 -0.43,-0.61 -0.86,-0.92 0.03,-0.21 0.62,-0.45 0.85,-0.97 0.23,-0.51 0.35,-0.98 0.04,-1.51 -0.82,-1.43 -2.43,-0.47 -2.64,-0.52 -0.04,-0.54 -0.09,-0.87 -0.38,-1.23 -0.34,-0.42 -0.46,-0.46 -0.94,-0.69 -0.02,-0.3 0.79,-2.61 1.02,-2.78l1 -0.24c0.1,1.59 1.64,2.69 2.84,1.33 0.15,-0.17 0.25,-0.32 0.33,-0.58 0.09,-0.27 0.08,-0.5 0.15,-0.73 0.24,-0.05 0.44,0.09 0.69,0.15 1.48,0.37 2.59,-0.91 1.94,-2.19 -0.1,-0.2 -0.23,-0.35 -0.38,-0.52 -0.15,-0.18 -0.36,-0.27 -0.46,-0.47 0.28,-0.4 1.25,-0.84 0.97,-2.1 -0.09,-0.39 -0.39,-0.7 -0.7,-0.87 -0.51,-0.28 -0.69,-0.18 -1.35,-0.2 0.24,-0.34 1.42,-1.06 1.82,-1.34l0.76 -0.46c0.31,-0.14 1.14,-0.61 1.36,-0.6 0.08,0.77 0.08,1.49 0.11,2.25 0.01,0.31 0.08,0.4 0.09,0.7 0.03,0.74 0.49,3.64 0.73,4.44 0.02,0.08 0.07,0.14 0.11,0.27 0.07,0.22 0.11,0.42 0.17,0.64 0.49,1.69 1.07,3.01 1.74,4.58 0.34,0.79 0.68,1.34 1.07,2.11 0.3,0.59 0.82,1.38 1.21,1.95 1.29,1.83 2.74,3.67 4.36,5.13 1.13,1.02 2.2,2.03 3.47,2.86 0.35,0.23 0.57,0.39 0.93,0.63l1.46 0.9c0.18,0.1 0.32,0.2 0.51,0.3 0.4,0.2 0.69,0.38 1.06,0.55 0.76,0.34 1.4,0.65 2.18,0.98 0.59,0.25 1.71,0.66 2.33,0.83 -0.02,0.25 -0.49,1.24 -0.62,1.51 -0.24,0.49 -0.39,1 -0.59,1.52l-0.8 2.35c-0.07,0.21 -0.14,0.62 -0.21,0.86 -0.59,2.23 -0.98,5.26 -0.98,7.59 0,0.29 0.02,0.38 -0.07,0.61l-0.16 0.04c-0.5,0.05 -8.02,-0 -8.54,-0l-6.58 -0c-0.38,-0 -0.68,0.04 -0.71,0.41 -0.03,0.4 0.23,0.52 0.61,0.52l27.58 -0c0.75,-0 0.81,-0.94 -0.1,-0.94l-1.09 -0.02c-0.02,-3.19 0.08,-28.07 -0.03,-28.82 -0.07,-0.46 -0.04,-0.99 -0.11,-1.46 -0.03,-0.22 -0.06,-0.39 -0.09,-0.67l-0.41 -1.93c-0.41,-1.86 -1.34,-3.92 -2.26,-5.58 -0.19,-0.34 -0.4,-0.66 -0.59,-0.96 -1.87,-2.93 -4.63,-5.54 -7.66,-7.2 -1.61,-0.88 -3.24,-1.6 -5.05,-2.04 -0.42,-0.1 -0.81,-0.22 -1.21,-0.32 -1.4,-0.32 -2.86,-0.43 -4.29,-0.44 -1.28,-0.01 -3.01,0.08 -4.26,0.4l-1.31 0.28c-0.08,-0.83 0.1,-1.2 -0.73,-1.68 -0.89,-0.53 -1.83,0.09 -1.98,0.05 -0.17,-0.05 -0.04,-1.08 -0.78,-1.62 -0.6,-0.44 -1.16,-0.52 -1.81,-0.07 -0.29,0.2 -0.37,0.36 -0.54,0.67 -0.2,0.36 -0.21,0.88 -0.25,0.96 -0.09,0.16 -1.12,-0.46 -1.95,-0.06 -0.56,0.27 -0.92,0.73 -0.83,1.61 0.07,0.7 0.62,1 1.03,1.45zm-1.1 4.62c0.3,-0 0.35,-0.12 0.75,-0.09 0.41,0.03 0.83,0.31 1.09,0.61 0.19,0.21 0.2,0.39 0.37,0.53 0.12,-0.05 0.58,-0.43 0.69,-0.52l0.68 -0.52c-0.09,-0.29 -0.29,-0.32 -0.5,-0.74 -0.16,-0.32 -0.17,-0.6 -0.21,-1 -0.23,-0.02 -0.32,0.14 -0.87,0.23 -0.45,0.08 -0.44,0.14 -0.74,0.39 -0.32,0.25 -1.1,0.84 -1.26,1.1zm-5.35 7.28c1.23,0.76 1.43,2.25 0.45,2.88 -0.65,0.41 -0.71,0.15 -1.24,0.32 -0.11,0.39 -0.34,1.58 -0.32,2.03 0.31,0 0.55,-0.01 0.81,0.06 0.21,0.06 0.47,0.23 0.62,0.2 0.03,-0.59 0.15,-0.94 0.42,-1.29 0.52,-0.67 0.38,-0.05 0.7,-1.01l0.88 -2.59c-0.31,-0.28 -0.93,-0.58 -0.78,-1.58 0.13,-0.81 0.74,-1.13 1.03,-1.43 -0.08,-0.16 -0.2,-0.19 -0.34,-0.31 -0.24,-0.2 -0.13,-0.24 -0.36,-0.31 -0.19,0.14 -0.55,0.83 -0.71,1.11 -0.2,0.35 -0.07,0.73 -0.55,1.3 -0.34,0.4 -0.55,0.43 -0.62,0.61zm1.85 4.48c-1.17,0.37 -0.33,2.12 -0.27,2.37 0.15,0.62 -0.43,0.88 -0.77,0.51 -0.11,-0.12 -0.21,-0.31 -0.35,-0.46 -1.23,-1.37 -2.61,-0.6 -1.72,0.47 0.26,0.31 0.68,0.41 1.13,0.53 0.37,0.1 1.13,0.05 1.04,0.63 -0.11,0.7 -1.42,0.15 -2.22,1.1 -0.76,0.91 0.41,1.85 1.78,0.38 0.13,-0.14 0.25,-0.35 0.39,-0.46 0.46,-0.36 0.93,0.07 0.65,0.7 -0.5,1.15 -0.22,2.49 0.7,2.17 0.56,-0.19 0.57,-1.11 0.36,-1.8l-0.21 -0.67c-0.07,-0.57 0.48,-0.74 0.86,-0.29 0.23,0.28 0.51,0.63 0.82,0.84 1.08,0.73 1.99,-0.2 1.11,-1.01 -0.25,-0.24 -0.75,-0.43 -1.15,-0.5 -0.2,-0.04 -0.58,-0.06 -0.73,-0.14 -0.2,-0.1 -0.27,-0.38 -0.16,-0.62 0.21,-0.45 1.63,-0.06 2.25,-1.08 0.48,-0.8 -0.43,-1.52 -1.61,-0.5 -0.24,0.21 -0.58,0.76 -0.84,0.83 -0.26,0.07 -0.46,-0.05 -0.54,-0.25 -0.18,-0.43 0.53,-1.14 0.32,-2.03 -0.1,-0.41 -0.4,-0.87 -0.85,-0.73zm3.77 -5.75c0.08,0.86 -0.82,1.79 -0.04,2.66 0.5,0.56 1.49,-0.16 1.02,-1.63 -0.11,-0.36 -0.47,-0.86 -0.1,-1.17 0.62,-0.51 0.95,0.92 1.91,1.21 1.37,0.41 1.39,-1.01 0.44,-1.43 -0.5,-0.23 -0.74,-0.22 -1.33,-0.33 -0.56,-0.1 -0.52,-0.82 0,-0.92 0.44,-0.08 1.01,-0.13 1.36,-0.32 1.04,-0.55 0.83,-1.86 -0.44,-1.44 -0.68,0.22 -1.18,1.05 -1.34,1.17 -0.22,0.16 -0.54,0.1 -0.65,-0.1 -0.27,-0.48 0.79,-1.77 0.02,-2.63 -0.51,-0.57 -1.51,-0.05 -1.11,1.52 0.08,0.32 0.52,1.03 0.06,1.24 -0.75,0.34 -0.88,-1.07 -2.05,-1.24 -1.36,-0.21 -1.27,1.42 0.61,1.71 0.19,0.03 0.58,0.04 0.73,0.14 0.14,0.09 0.58,0.69 -0.42,0.86 -0.41,0.07 -0.97,0.17 -1.26,0.39 -0.93,0.68 -0.71,1.75 0.64,1.33 0.57,-0.18 1.03,-1.05 1.33,-1.19 0.34,-0.15 0.42,0.02 0.62,0.15zm-6.93 12.89l-0.02 23.9c0.32,0.03 0.69,0.02 1.01,0.02l0.9 -0.01c0.12,-0.02 0.06,-0.01 0.12,-0.04 0.11,-0.12 0.04,-18.31 0.04,-21.41 0,-0.38 0.07,-1.23 -0.06,-1.51 -0.37,-0.78 -0.17,-0.22 -0.37,-1.18 -0.29,0.01 -0.3,0.18 -0.71,0.24 -0.4,0.07 -0.61,-0.02 -0.92,-0zm38.97 3.81c0.1,-0.19 0.06,-6.67 0.03,-7.74 -0.02,-0.82 -0.12,-1.58 -0.25,-2.35 -0.41,-2.4 -1.25,-4.6 -2.53,-6.6 -0.13,-0.2 -0.39,-0.67 -0.57,-0.76l-0.15 1.17c-0.08,1.57 -0.04,2.33 -0.01,3.87 0.03,1.6 0.34,3.19 0.61,4.68l1.35 4.58 0.59 1.41c0.09,0.21 0.73,1.66 0.93,1.73zm0.02 20.11l0.02 -15.82c-0.28,-0 -1.93,0.95 -2.34,1.14 -0.21,0.1 -0.38,0.15 -0.5,0.35 -0.51,0.87 -1.55,3.63 -1.77,4.42 -0.07,0.25 -0.12,0.4 -0.21,0.64 -0.4,1.18 -0.99,4.01 -1.09,5.12 -0.04,0.48 -0.1,1.09 -0.16,1.6 -0.06,0.54 -0.07,1.05 -0.08,1.66 -0.02,1.13 -0.49,0.89 2.59,0.89 0.6,0 3.15,0.03 3.53,-0.02zm0.92 -16.32l0 16.29c0.23,0.09 1.87,0.09 2.08,-0l0.03 -16.71c0,-0.82 0.1,-0.75 -0.83,-0.25 -0.37,0.2 -0.93,0.41 -1.28,0.67zm-25.3 -31.12c0.24,0.25 0.49,0.36 0.74,0.77 0.33,0.56 0.22,0.54 0.28,1.27 0.36,0.01 0.48,-0.13 1.07,-0.25 1.3,-0.27 2.31,-0.47 3.69,-0.49 1.07,-0.01 2.83,-0.02 3.87,0.26l1.12 0.26c2.69,0.56 5.46,2.01 7.45,3.62 0.7,0.57 1.54,1.27 2.13,1.99 0.75,0.91 1.11,1.2 1.83,2.34 0.84,1.34 1.3,2.15 1.89,3.63l0.66 2.11c0.09,0.34 0.19,0.77 0.24,1.12 0.06,0.46 0.15,0.68 0.21,1.18 0.12,1.05 0.12,2.01 0.12,3.08 -0,2.98 -0.04,6.15 0.01,9.11 0.13,-0 1.91,-0.91 2.07,-1.02l0.02 -0.45c0.02,-0.79 0.04,-9.48 -0.04,-10.22 -0.08,-0.75 -0.19,-1.59 -0.32,-2.33 -0.34,-1.94 -1.18,-4.22 -2.08,-5.92 -1.46,-2.78 -3.71,-5.29 -6.2,-7.1 -0.38,-0.28 -1.17,-0.86 -1.59,-1.06l-1.74 -0.93c-1.14,-0.57 -2.6,-1.06 -3.93,-1.41 -0.39,-0.1 -0.65,-0.19 -1.04,-0.25 -0.36,-0.05 -0.79,-0.17 -1.16,-0.2 -3.11,-0.24 -3.18,-0.32 -6.48,0.12 -0.67,0.09 -1.99,0.48 -2.16,0.49 -0.34,0.02 -0.54,-0.03 -0.66,0.27zm12.77 5.57c0.15,0.08 0.9,0.32 1.28,0.52 1.1,0.57 1.21,0.6 2.35,1.26 0.29,0.17 0.89,0.64 1.14,0.69 0.1,-0.34 0.4,-1.33 0.41,-1.64 -0.41,-0.28 -0.83,-0.7 -1.46,-1.1 -0.53,-0.34 -1.03,-0.66 -1.6,-0.97 -0.31,-0.17 -0.52,-0.27 -0.84,-0.42 -0.3,-0.14 -0.57,-0.3 -0.89,-0.41 -0.37,-0.13 -0.27,-0.03 -0.34,0.81 -0.03,0.39 -0.08,0.83 -0.06,1.25zm-9.67 -0.83c0.23,0.02 1.14,-0.15 1.44,-0.19 1.25,-0.17 3.02,-0.03 4.27,0.04 0.01,-0.2 0.01,-0.4 0.03,-0.6l0.15 -1.47c-0.03,-0.11 -0.01,-0.05 -0.05,-0.11 -0.21,-0.18 -2.21,-0.18 -2.66,-0.17 -0.97,0 -1.79,0.06 -2.7,0.2 -0.59,0.09 -0.51,-0.11 -0.51,0.88 0,0.37 -0.04,1.1 0.02,1.43zm3.53 0.64c-1.13,0 -2.67,0.15 -3.74,0.34 -0.93,0.17 -0.73,-0.64 -0.73,-1.81l-0 -1.15c-0.49,-0.03 -1.65,0.45 -2.17,0.59 -0.21,0.89 0.13,3.59 0.3,4.8 0.27,1.92 1.08,5.05 1.89,6.79 0.17,0.38 0.33,0.78 0.51,1.19l0.85 1.71c0.1,0.2 0.18,0.36 0.3,0.56 0.65,1.11 1.32,2.12 2.08,3.14 0.5,0.67 0.98,1.23 1.56,1.91 1.53,1.8 4.39,4.26 6.55,5.51 0.74,0.43 1.4,0.87 2.2,1.26 0.4,0.19 0.77,0.35 1.17,0.55 0.42,0.21 3.35,1.45 3.8,1.36l2.88 -1.46c0.37,-0.16 0.28,-0.22 0.28,-0.9 0,-0.56 -0.42,-1.07 -0.79,-1.75l-1.65 -3.58c-1.83,-4.56 -2.43,-10.15 -1.83,-15.05 0.11,-0.92 0.09,-0.64 -0.44,-1.27 -0.16,-0.19 -0.77,-0.86 -0.95,-0.89l-0.46 1.58c-0.09,0.32 -0.09,0.25 -0.23,0.48 -0.7,0.06 -1.06,-0.47 -2.02,-1.09 -0.62,-0.4 -1.34,-0.8 -2.02,-1.1l-1.04 -0.46c-0.24,-0.1 -0.99,-0.31 -1.07,-0.5 -0.1,-0.23 0.09,-2.53 0.06,-3.07 -0.45,-0.12 -1.35,-0.39 -1.8,-0.43 -0.24,-0.02 -0.25,0.03 -0.27,0.25 -0.01,0.18 -0.01,0.38 -0.02,0.56 -0.02,0.39 -0.08,0.67 -0.1,1.05 -0.08,1.75 -0.19,0.87 -3.11,0.87zm-23.53 2.55c-0.24,0.14 -0.27,0.15 -0.38,0.4 -0.34,0.82 0.1,1.34 0.24,1.93 0.14,0.59 -0.46,0.86 -0.8,0.45 -0.29,-0.35 -0.44,-0.56 -0.81,-0.85 -0.85,-0.67 -2.11,-0.17 -1.31,0.81 0.78,0.96 2.12,0.43 2.22,1.09 0.04,0.26 -0.09,0.42 -0.26,0.51 -0.24,0.14 -1.17,-0.02 -1.87,0.65 -0.26,0.24 -0.49,0.95 -0.04,1.16 0.68,0.31 1.34,-0.23 1.74,-0.66 0.13,-0.14 0.26,-0.37 0.38,-0.48 0.34,-0.31 0.97,-0.03 0.69,0.63 -0.13,0.3 -0.35,0.95 -0.31,1.34 0.16,1.63 2.2,1.13 1.21,-1.32 -0.28,-0.69 0.35,-0.96 0.69,-0.63 0.25,0.25 0.27,0.41 0.8,0.85 0.83,0.7 2.22,0.25 1.33,-0.83 -0.72,-0.87 -2.25,-0.33 -2.08,-1.23 0.11,-0.61 1.66,-0.24 2.19,-1.13 0.6,-1.02 -0.63,-1.48 -1.53,-0.63 -0.11,0.11 -0.73,0.83 -0.79,0.87 -0.18,0.12 -0.51,0.08 -0.62,-0.1 -0.31,-0.49 0.82,-1.81 0,-2.71 -0.06,-0.07 -0.16,-0.14 -0.25,-0.17l-0.28 -0.01c-0.19,0.05 -0.04,0 -0.13,0.06zm13.35 -11.95c-0.42,0.12 -0.64,0.57 -0.65,1 -0.01,0.34 0.21,1 0.33,1.32 0.25,0.7 -0.42,0.89 -0.72,0.56 -0.28,-0.3 -0.37,-0.54 -0.82,-0.88 -0.96,-0.72 -2.12,-0.09 -1.22,0.92 0.76,0.86 2.38,0.23 2.11,1.23 -0.15,0.53 -1.5,0.1 -2.24,1.07 -0.65,0.85 0.42,1.59 1.54,0.58 0.26,-0.24 0.97,-1.38 1.37,-0.64 0.12,0.23 0,0.5 -0.08,0.69 -0.59,1.38 -0.01,2.28 0.61,2.15 0.34,-0.07 0.6,-0.6 0.61,-1.03 0.01,-0.59 -0.17,-0.86 -0.32,-1.34 -0.22,-0.66 0.36,-0.93 0.72,-0.57 0.31,0.32 0.42,0.58 0.82,0.88 1.07,0.8 2.13,-0.01 1.27,-0.87 -0.97,-0.97 -2.29,-0.21 -2.13,-1.22 0.1,-0.61 1.6,-0.2 2.23,-1.08 0.6,-0.84 -0.34,-1.65 -1.49,-0.65 -0.16,0.14 -0.75,0.81 -0.82,0.84 -0.26,0.11 -0.53,-0.01 -0.61,-0.2 -0.19,-0.45 0.53,-1.24 0.32,-2.03 -0.11,-0.41 -0.35,-0.9 -0.83,-0.76z"/> </g> </svg>