<?xml version="1.0" encoding="UTF-8" standalone="no"?>
<svg width="300" height="320" viewBox="0 0 300 320" xmlns="http://www.w3.org/2000/svg">
    <style>
        .month { font-family: 'Georgia', serif; font-size: 22px; fill: #1F1B20; }
        .weekday { font-family: 'Georgia', serif; font-size: 14px; fill: #1F1B20; }
        .day { font-family: 'Georgia', serif; font-size: 14px; fill: #1F1B20; }
    </style>

    <!-- Месяц -->
    <text x="75" y="30" class="month">август 2025</text>

    <!-- Дни недели -->
    <text x="10" y="60" class="weekday">Пн</text>
    <text x="50" y="60" class="weekday">Вт</text>
    <text x="90" y="60" class="weekday">Ср</text>
    <text x="130" y="60" class="weekday">Чт</text>
    <text x="170" y="60" class="weekday">Пт</text>
    <text x="210" y="60" class="weekday">Сб</text>
    <text x="250" y="60" class="weekday">Вс</text>

    <!-- Даты -->
    <!-- Неделя 1 -->
    <text x="170" y="90" class="day">1</text>
    <text x="210" y="90" class="day">2</text>
    <text x="250" y="90" class="day">3</text>

    <!-- Неделя 2 -->
    <text x="10" y="120" class="day">4</text>
    <text x="50" y="120" class="day">5</text>
    <text x="90" y="120" class="day">6</text>
    <text x="130" y="120" class="day">7</text>
    <text x="170" y="120" class="day">8</text>
    <text x="210" y="120" class="day">9</text>
    <text x="250" y="120" class="day">10</text>

    <!-- Неделя 3 -->
    <text x="10" y="150" class="day">11</text>
    <text x="50" y="150" class="day">12</text>
    <text x="90" y="150" class="day">13</text>
    <text x="130" y="150" class="day">14</text>
    <text x="170" y="150" class="day">15</text>
    <text x="210" y="150" class="day">16</text>
    <text x="250" y="150" class="day">17</text>

    <!-- Неделя 4 -->
    <text x="10" y="180" class="day">18</text>
    <text x="50" y="180" class="day">19</text>
    <text x="90" y="180" class="day">20</text>
    <text x="130" y="180" class="day">21</text>
    <text x="170" y="180" class="day">22</text>
    <text x="210" y="180" class="day">23</text>
    <text x="250" y="180" class="day">24</text>

    <!-- Неделя 5 -->
    <text x="10" y="210" class="day">25</text>
    <text x="50" y="210" class="day">26</text>
    <text x="90" y="210" class="day">27</text>
    <text x="130" y="210" class="day">28</text>
    <text x="170" y="210" class="day">29</text>
    <text x="210" y="210" class="day">30</text>
    <text x="250" y="210" class="day">31</text>
</svg>
