<svg xmlns="http://www.w3.org/2000/svg" xmlns:xlink="http://www.w3.org/1999/xlink" xmlns:xodm="http://www.corel.com/coreldraw/odm/2003" xml:space="preserve" width="38.6535mm" height="35.4119mm" version="1.1" style="shape-rendering:geometricPrecision; text-rendering:geometricPrecision; image-rendering:optimizeQuality; fill-rule:evenodd; clip-rule:evenodd" viewBox="0 0 55.69 51.02"> <defs> <style type="text/css"> .fil0 {fill:#1F1B20} </style> </defs> <g id="Слой_x0020_1"> <metadata id="CorelCorpID_0Corel-Layer"/> <g id="_2988557408096"> <path class="fil0" d="M14.03 17.54c0.04,-0.16 0.94,-1.02 1.09,-1.18 0.12,-0.12 0.22,-0.24 0.33,-0.38l1.08 -1.15c0.13,-0.14 0.22,-0.21 0.36,-0.34 0.27,-0.27 0.44,-0.51 0.69,-0.78 0.12,-0.14 0.25,-0.22 0.39,-0.37l3.21 -3.43c0.23,-0.24 0.49,-0.49 0.72,-0.74l1.42 -1.52c0.35,-0.36 1.92,-2.09 2.18,-2.23 0.55,0.54 1.33,1.02 2.39,1 1.45,-0.03 2.05,-0.87 2.34,-1 0.28,0.28 0.5,0.5 0.75,0.78 1.06,1.18 2.44,2.57 3.58,3.77l3.57 3.77c0.24,0.24 0.43,0.53 0.69,0.78l2.51 2.65c0.12,0.13 0.26,0.2 0.33,0.38 -8.97,-0 -18.02,0.04 -26.98,0l-0.65 -0.01zm13.56 -15.89c0.93,-0.16 1.66,0.45 1.81,1.24 0.19,0.96 -0.49,1.72 -1.24,1.87 -2.07,0.41 -2.7,-2.75 -0.57,-3.11zm-27.59 20.62l0 10.11c0.18,0.28 0.21,0.55 0.62,0.65 0.38,0.09 0.73,-0.11 0.89,-0.37 0.21,-0.34 0.12,-2.03 0.12,-2.54 0,-1.76 0,-3.52 0,-5.28 0,-1.96 -0.17,-3.05 0.92,-4.35 0.35,-0.42 0.88,-0.86 1.58,-1.08 0.84,-0.26 1.52,-0.22 2.44,-0.22l42.31 0c1.35,-0 2.21,-0.12 3.36,0.55 0.18,0.1 0.66,0.47 0.77,0.6 1.16,1.42 1.03,2.09 1.03,4.29 0,0.73 -0.06,7.5 0.05,7.89 0.16,0.56 0.77,0.72 1.22,0.44 0.31,-0.19 0.11,-0.25 0.37,-0.36l0 -10.32c-0.14,-0.04 -0.09,-0.21 -0.12,-0.41 -0.02,-0.14 -0.06,-0.26 -0.1,-0.39 -0.39,-1.27 -1.03,-2.24 -2.16,-3.01 -0.45,-0.31 -0.86,-0.47 -1.41,-0.65 -1.15,-0.38 -2.6,-0.26 -3.88,-0.26 -1.36,0 -2.73,0.01 -4.09,-0l-6.44 -6.81c-0.45,-0.47 -1.34,-1.5 -1.77,-1.88l-4.09 -4.34c-0.62,-0.68 -0.67,-0.54 -0.62,-0.95 0.08,-0.77 -0.07,-1.49 -0.47,-2.09 -1.42,-2.12 -4.33,-1.81 -5.43,0.03 -0.88,1.47 -0.19,2.1 -0.59,2.51 -1.18,1.19 -2.42,2.58 -3.59,3.81 -0.17,0.18 -0.36,0.33 -0.52,0.51 -0.18,0.2 -0.29,0.36 -0.49,0.54l-4.1 4.33c-0.35,0.37 -0.41,0.49 -0.8,0.83l-3.28 3.51c-1.37,0.04 -2.78,0 -4.15,0 -1.72,0 -3.76,-0.17 -5.27,0.94 -0.5,0.37 -1.27,1.09 -1.52,1.58 -0.11,0.22 -0.26,0.45 -0.36,0.67 -0.24,0.51 -0.36,1.43 -0.47,1.53z"/> <path class="fil0" d="M-0 36.14l0 10.36c0.14,0.1 0.22,0.57 0.27,0.74 0.52,1.71 1.86,2.98 3.56,3.51 1.16,0.36 2.51,0.25 3.78,0.25l40.41 0c2.21,0 3.32,0.22 5.19,-0.85 1.13,-0.65 1.98,-1.95 2.31,-3.23l0.09 -0.3c0.07,-0.13 -0.01,-0.02 0.08,-0.11l0 -10.61c-0.22,-0.12 -0.04,-0.14 -0.35,-0.37 -0.41,-0.3 -1.08,-0.16 -1.24,0.45 -0.1,0.41 -0.04,7.15 -0.04,7.9 0,1.39 0.16,2.38 -0.48,3.55 -0.49,0.89 -1.12,1.42 -2.19,1.78 -0.73,0.24 -1.63,0.17 -2.44,0.17l-42.42 0c-0.93,-0 -1.58,0.05 -2.43,-0.23 -0.66,-0.22 -0.83,-0.44 -1.26,-0.75 -0.22,-0.16 -0.15,-0.17 -0.31,-0.35 -1.07,-1.19 -0.9,-2.52 -0.9,-4.38 0,-1.76 0,-3.52 0,-5.28 0,-1.02 0.33,-3.16 -0.98,-2.88 -0.45,0.1 -0.48,0.33 -0.65,0.64z"/> <path class="fil0" d="M11.43 26.47c-0.16,1.16 -0.9,1.92 -1.42,2.62 -0.23,0.31 -0.15,0.31 -1.01,0.18 -4.21,-0.64 -3.67,-3.55 -1.94,-3.57 0.67,-0.01 1.33,0.8 1.86,-0.41 0.25,-0.58 0.97,-1.07 1.75,-0.69 0.6,0.29 0.87,0.97 0.74,1.88zm-1.64 -3.62c-0.66,0.06 -1.41,0.46 -1.79,0.89 -0.08,0.09 -0.16,0.24 -0.24,0.31 -0.16,0.12 -0.69,-0.01 -0.96,0.01 -3.65,0.32 -4.23,6.42 2.77,6.92 1.06,0.08 1.03,-0.14 1.52,-0.65 1.43,-1.47 2.7,-3.97 1.53,-6.1 -0.54,-0.99 -1.72,-1.49 -2.84,-1.38z"/> <path class="fil0" d="M44.25 26.36c-0.22,-1.82 1.26,-2.16 1.96,-1.73 0.29,0.18 0.43,0.42 0.59,0.77 0.49,1.05 1.15,0.27 1.87,0.29 0.92,0.02 2.03,1.26 0.43,2.68 -0.49,0.44 -1.77,0.8 -2.52,0.91 -0.67,0.1 -0.71,0.25 -1.56,-1.02 -0.32,-0.49 -0.7,-1.19 -0.78,-1.9zm0.98 -3.51c-1.24,0.15 -2.05,0.93 -2.42,1.89 -0.66,1.71 0.2,3.5 1.14,4.81 0.28,0.39 0.71,0.88 1.01,1.17 0.76,0.73 4.74,-0.05 6.06,-2.02 0.65,-0.97 0.7,-2.27 0.08,-3.31 -0.22,-0.37 -0.71,-0.79 -1.11,-1.01 -0.65,-0.34 -1.04,-0.37 -1.85,-0.3 -0.37,0.03 -0.25,-0.4 -1.14,-0.89 -0.49,-0.27 -1.1,-0.43 -1.76,-0.35z"/> <path class="fil0" d="M10.99 39.43c-0.15,-0.11 -0.87,-1.5 -0.96,-1.66 -0.28,-0.5 -0.6,-1.31 -1.17,-1.45 -0.43,-0.1 -0.85,0.05 -0.97,0.32 -0.16,0.35 -0.08,5.69 -0.08,6.47 -0,0.45 -0.09,0.88 0.25,1.08 0.27,0.16 0.8,0.13 1.02,-0.05 0.28,-0.23 0.15,-1.95 0.15,-2.44 -0,-0.83 -0.03,-1.73 0.01,-2.56 0.11,0.08 0.31,0.52 0.4,0.69 0.12,0.22 0.23,0.44 0.36,0.68 0.21,0.39 0.49,1.16 0.93,1.19 0.5,0.03 0.76,-0.74 0.99,-1.12 0.16,-0.27 0.62,-1.22 0.81,-1.34l-0.01 3.94c-0,0.48 -0.09,0.87 0.26,1.04 0.29,0.13 0.78,0.14 1.02,-0.08 0.22,-0.2 0.15,-0.82 0.15,-1.18l-0 -5.17c-0,-0.87 0.06,-1.75 -1.09,-1.46 -0.81,0.21 -1.49,2.46 -2.08,3.1z"/> <path class="fil0" d="M29.46 39.87l0 -2.33c1.2,-0.01 2.35,-0.23 2.37,1.17 0.01,0.57 -0.2,0.94 -0.66,1.09 -0.34,0.11 -1.31,0.09 -1.71,0.07zm2.4 0.91c0.28,-0.21 1.15,-0.35 1.36,-1.64 0.08,-0.47 0.04,-1 -0.08,-1.42 -0.4,-1.34 -1.81,-1.44 -3.01,-1.43 -1.84,0.01 -2.11,-0.23 -2.1,0.85 0.02,1.99 0,3.99 0,5.98 -0,0.54 -0.11,0.97 0.36,1.13 0.39,0.13 0.94,0.02 1.03,-0.31 0.11,-0.36 0,-2.37 0.04,-2.95l0.92 0.02 1.43 2.81c0.15,0.3 0.37,0.62 0.82,0.5 0.31,-0.08 0.7,-0.38 0.65,-0.76 -0.03,-0.27 -1.36,-2.44 -1.43,-2.78z"/> <path class="fil0" d="M23.21 37.54c0.43,-0.01 1.34,-0.05 1.71,0.07 0.91,0.31 0.91,1.86 -0.01,2.18 -0.38,0.13 -1.26,0.08 -1.7,0.07l0 -2.32zm2.4 3.23c0.44,-0.29 0.59,-0.22 0.91,-0.62 0.73,-0.9 0.66,-2.56 -0.22,-3.32 -0.61,-0.52 -1.5,-0.55 -2.42,-0.55 -1.8,0 -2.1,-0.22 -2.1,0.85 0.01,1.99 0,3.99 0,5.98 -0,0.54 -0.11,0.98 0.37,1.13 0.42,0.13 0.91,0.03 1.02,-0.31 0.15,-0.45 -0.05,-2.26 0.05,-2.94l0.87 -0.01c0.17,0.2 1.22,2.28 1.46,2.79 0.57,1.17 1.5,0.25 1.49,-0.17 -0.01,-0.32 -1.35,-2.41 -1.43,-2.83z"/> <path class="fil0" d="M44.26 37.54c2.41,-0.01 2.3,0.1 2.29,2.8 -0,2.68 0.03,2.7 -2.29,2.72l0 -5.52zm3.64 4.98c0.16,-0.76 0.07,-2.4 0.08,-3.26 0.01,-2.89 -1.4,-2.97 -3.6,-2.97 -1.8,-0 -1.54,-0.03 -1.54,1.72l0 4.95c0,0.57 -0.13,1.14 0.35,1.3 0.38,0.13 2.7,0.05 3.13,-0.06 0.87,-0.23 1.39,-0.78 1.58,-1.67z"/> <path class="fil0" d="M21.66 23.2c-0.47,0.18 -0.35,0.41 -0.35,0.93l0 3.75c0,0.84 -0.05,1.49 0.32,2.19 0.29,0.54 0.74,0.89 1.5,1.05 1.3,0.27 2.88,-0.05 3.32,-1.53 0.25,-0.86 0.12,-3.82 0.12,-4.92 0,-0.78 0.25,-1.76 -0.96,-1.52 -0.66,0.13 -0.47,0.84 -0.47,2.01 0,0.83 0,1.67 -0,2.5 -0,0.84 0.11,1.71 -0.49,2.09 -0.57,0.36 -1.45,0.22 -1.75,-0.36 -0.25,-0.48 -0.17,-1.68 -0.17,-2.33 0,-0.39 0.07,-3.47 -0.07,-3.69 -0.17,-0.27 -0.69,-0.3 -1.01,-0.18z"/> <path class="fil0" d="M17.84 38.49c0.02,-0.06 0.04,-0.15 0.07,-0.2 0.08,-0.15 0.03,-0.06 0.09,-0.13l0.9 3.28 -1.88 -0 0.82 -2.95zm1.36 4.07c0.19,0.32 0.29,1.02 0.43,1.42 0.09,0.26 0.25,0.32 0.59,0.3 1.21,-0.08 0.61,-1.24 0.47,-1.69l-1.29 -4.21c-0.42,-1.37 -0.43,-2.18 -1.46,-2.17 -0.68,0.01 -0.84,0.27 -1,0.82l-1.72 5.62c-0.14,0.46 -0.45,1.01 -0.13,1.34 0.27,0.29 1.03,0.48 1.22,-0.04 0.14,-0.38 0.3,-1 0.4,-1.41l2.49 -0z"/> <path class="fil0" d="M38.49 37.55c0.8,-0.06 3.07,0.12 3.34,-0.14 0.31,-0.31 0.23,-1.06 -0.29,-1.12l-3.41 -0c-0.57,-0.01 -1.06,-0.07 -1.1,0.57l0 6.91c0.05,0.62 0.62,0.53 1.21,0.53 0.48,-0 3.18,0.04 3.4,-0.02 0.47,-0.12 0.45,-0.94 0.16,-1.14 -0.3,-0.22 -2.72,-0.03 -3.33,-0.1 -0.04,-0.31 -0.06,-1.93 0.01,-2.17 0.42,-0.03 0.9,-0.01 1.33,-0.01 0.45,0 0.75,-0.05 0.75,-0.56 -0,-0.52 -0.31,-0.56 -0.8,-0.56 -0.43,-0 -0.87,0.02 -1.3,-0 -0.01,-0.4 -0.07,-1.91 0.03,-2.18z"/> <path class="fil0" d="M29.66 23.14c-1.91,0.31 -2.35,1.99 -1.77,3.12 0.26,0.51 0.89,0.92 1.46,1.2 0.64,0.31 1.28,0.5 1.66,1 0.7,0.93 -0.74,2.19 -2.32,1.01 -0.12,-0.09 -0.82,-0.82 -1.17,0.16 -0.62,1.7 5.34,2.87 5.07,-0.99 -0.17,-2.36 -3.02,-2.29 -3.43,-3.22 -0.28,-0.64 0.4,-1.64 2.39,-0.81 0.78,0.32 1.24,-0.83 0.42,-1.24 -0.59,-0.3 -1.6,-0.35 -2.31,-0.24z"/> <path class="fil0" d="M17.43 23.15c-0.51,0.21 -0.51,1.16 0.13,1.22 1.22,0.12 1.07,-0.41 1.07,0.96 0,0.72 0.08,3.53 -0.12,4 -0.2,0.46 -0.71,0.73 -1.36,0.59 -0.79,-0.17 -0.72,-0.87 -0.84,-1.22 -0.17,-0.49 -1.15,-0.51 -1.34,-0.03 -0.23,0.56 0.11,1.3 0.38,1.64 0.92,1.14 4.63,1.81 4.7,-1.71 0.03,-1.35 0,-2.73 0,-4.08 0,-0.8 0.19,-1.34 -0.66,-1.39 -0.28,-0.02 -1.83,-0.04 -1.98,0.03z"/> <path class="fil0" d="M35.11 24.43c0.08,0.87 0.01,4.22 0.01,5.53 -0,0.69 -0.1,1.18 0.72,1.19 0.77,0.01 0.71,-0.48 0.71,-1.13 -0,-0.81 -0.04,-5.17 0.02,-5.58 0.7,-0.08 2.42,0.34 1.99,-0.93 -0.16,-0.47 -0.57,-0.37 -1.13,-0.37l-3.1 0c-0.47,-0 -1.02,-0.12 -1.19,0.31 -0.17,0.42 -0.02,0.93 0.43,0.98 0.48,0.05 1.06,-0.03 1.56,0.02z"/> <path class="fil0" d="M34.28 43.82c0.07,0.64 1.33,0.65 1.42,0.04l0.01 -7.05c-0.05,-0.71 -1.35,-0.69 -1.42,-0.05 -0.07,0.61 -0,1.67 -0,2.33l0 4.73z"/> </g> </g> </svg>