<svg xmlns="http://www.w3.org/2000/svg" xmlns:xlink="http://www.w3.org/1999/xlink" xmlns:xodm="http://www.corel.com/coreldraw/odm/2003" xml:space="preserve" width="25.5118mm" height="36.6454mm" version="1.1" style="shape-rendering:geometricPrecision; text-rendering:geometricPrecision; image-rendering:optimizeQuality; fill-rule:evenodd; clip-rule:evenodd" viewBox="0 0 2927.97 4205.76"> <defs> <style type="text/css"> .fil0 {fill:#1F1B20} </style> </defs> <g id="Слой_x0020_1"> <metadata id="CorelCorpID_0Corel-Layer"/> <path class="fil0" d="M1411.89 808.06c548.72,-38.16 921.08,515.53 732.57,991.01 -46.67,117.71 -133.18,239.14 -232.92,312.92 -117.19,86.67 -235.55,140.19 -394.58,152.24 -112.03,8.49 -221.01,-10.91 -316.96,-47.38 -97.5,-37.04 -200.6,-107.81 -271.49,-182.63 -8.58,-9.07 -11.96,-16.07 -20.46,-25.62 -11.09,-12.44 -12.76,-13.84 -21.03,-24.76 -85.19,-112.52 -140.78,-246.75 -151.09,-396.97 -28.76,-418.71 290.97,-752.05 675.96,-778.81zm51.8 3397.71c19.03,-19.59 34.57,-41.93 50.21,-64.2 14.75,-21.03 31.97,-41.88 46.85,-63.31 31.89,-45.95 63.24,-86.16 94.44,-130.34 61.54,-87.16 121.38,-175.37 183.09,-262.14l178.96 -266.07c57.19,-88.95 119.88,-179.32 174.13,-271.07 14.19,-23.99 29.53,-46.65 44.08,-70.63 221.03,-363.92 411.84,-688.17 573.4,-1096.85 97.18,-245.79 149.26,-465.49 100.63,-757.19 -110.17,-660.84 -685.79,-1224.22 -1445.8,-1223.94 -252.94,0.1 -525.84,73.65 -710.02,183.57 -63.28,37.77 -206.99,129.2 -261.02,184.2 -21.83,22.22 -38.88,34.3 -59.89,54.85l-104 116.31c-154.89,205.07 -259.95,388.4 -311.92,693 -67.42,395.13 78.98,725.1 239.72,1065.41 46.5,98.47 99.67,202.96 151.11,294.04 213.99,378.82 436.16,743.76 683.85,1096.57 25.6,36.47 335.36,484.97 372.18,517.79z"/> </g> </svg>