<svg xmlns="http://www.w3.org/2000/svg" xmlns:xlink="http://www.w3.org/1999/xlink" xmlns:xodm="http://www.corel.com/coreldraw/odm/2003" xml:space="preserve" width="38.6705mm" height="52.0732mm" version="1.1" style="shape-rendering:geometricPrecision; text-rendering:geometricPrecision; image-rendering:optimizeQuality; fill-rule:evenodd; clip-rule:evenodd" viewBox="0 0 51.17 68.9"> <defs> <style type="text/css"> .fil0 {fill:black} </style> </defs> <g id="Слой_x0020_1"> <metadata id="CorelCorpID_0Corel-Layer"/> <g id="_2988972026240"> <path class="fil0" d="M16.85 52.48l1.08 0c0.1,0.27 0.36,0.51 0.51,0.76l1.4 2.03c0.01,0.01 0.02,0.03 0.03,0.04l2.01 3.04c0.01,0.01 0.02,0.03 0.03,0.04l0.12 0.15c0.01,0.01 0.02,0.03 0.03,0.04 0.01,0.01 0.02,0.03 0.02,0.04l1.75 2.56c0.03,0.04 0.02,0.04 0.05,0.09l0.32 0.49c0.01,0.01 0.02,0.03 0.03,0.04 0.18,0.25 0.32,0.52 0.57,0.71 0.34,0.24 0.98,0.36 1.48,0.08 0.26,-0.15 0.46,-0.41 0.49,-0.46l2.29 -3.37c0.01,-0.01 0.02,-0.03 0.02,-0.04l0.49 -0.72c0.01,-0.01 0.02,-0.03 0.03,-0.04 0.05,-0.08 0.03,-0.06 0.07,-0.13l2.7 -3.96c0.01,-0.01 0.02,-0.03 0.03,-0.04l0.64 -0.98c0.01,-0.01 0.02,-0.03 0.02,-0.04 0.01,-0.01 0.02,-0.03 0.03,-0.04 0.11,-0.16 0.12,-0.08 0.19,-0.28l1.08 0c0.09,0.22 0.37,0.13 0.61,0.13 0.58,0.01 0.08,0.12 0.67,0.14 0.32,0.01 0.39,0.09 0.68,0.13l0.55 0.05c0.02,0.01 0.03,0.01 0.05,0.02l3.56 0.88c0.06,0.02 0.12,0.04 0.15,0.05l0.49 0.11c0.02,0 0.03,0.01 0.05,0.02l1.43 0.52c0.02,0.01 0.03,0.01 0.05,0.02 0.02,0.01 0.03,0.01 0.05,0.02l1.3 0.52c0.02,0.01 0.03,0.01 0.05,0.02l1.3 0.65c0.02,0.01 0.07,0.03 0.09,0.04l0.22 0.12c0.01,0.01 0.03,0.02 0.04,0.03l0.52 0.36c0.01,0.01 0.03,0.02 0.04,0.03 0.01,0.01 0.03,0.02 0.04,0.02 0,0 0.09,0.05 0.09,0.05 0.01,0.01 0.03,0.02 0.04,0.02l0.19 0.15c0.01,0.01 0.03,0.02 0.04,0.03 0.01,0.01 0.03,0.02 0.04,0.02 0.34,0.2 0.6,0.52 0.88,0.8l0.77 1.18c0.16,0.49 0.15,0.68 -0.09,1.19l-0.42 0.66c-0.08,0.1 -0.05,0.05 -0.1,0.1l-1.55 1.28c-0.01,0.01 -0.03,0.01 -0.05,0.02 -0.01,0.01 -0.03,0.01 -0.05,0.02l-2.92 1.46c-0.11,0.04 -0.06,0.02 -0.15,0.05 -0.1,0.03 -0.05,0.01 -0.16,0.05l-1.17 0.44c-0.02,0.01 -0.03,0.01 -0.05,0.02l-2.14 0.62c-0.02,0.01 -0.03,0.01 -0.05,0.02l-0.15 0.05c-0.08,0.02 -0.1,0.01 -0.18,0.03l-3.57 0.8c-0.14,0.01 -0.25,-0.01 -0.39,0.01 -0.23,0.05 -0.32,0.12 -0.69,0.12l-0.35 0.05c-0.33,0.11 -0.72,0.03 -1.03,0.12l-0.3 0.1c-0.09,0.01 -0.3,0.01 -0.4,0l-0.7 0.11c-0.45,0.13 -1.05,-0.07 -1.47,0.07 -0.14,0.05 0.08,0.06 -0.31,0.09 -0.1,0.01 -0.29,-0 -0.41,-0 -0.66,-0.01 -1.36,-0.06 -2.02,-0 -0.39,0.03 -0.17,0.04 -0.31,0.09 -0.38,0.13 -2.83,0.1 -3.23,-0.04 -0.07,-0.02 0.03,-0.02 -0.16,-0.04 -0.84,-0.12 -1.93,0.21 -2.71,-0.05 -0.14,-0.05 0.08,-0.06 -0.31,-0.09 -0.36,-0.03 -0.85,0.06 -1.2,-0.01l-0.24 -0.09c-0.24,-0.07 -0.53,-0.01 -0.78,-0.02 -0.32,-0.01 -0.35,-0.13 -0.66,-0.14 -1.14,-0.04 -0.54,-0.11 -1.08,-0.13 -0.12,-0 -0.2,0.01 -0.32,-0.01 -0.3,-0.06 -0.13,-0.08 -0.69,-0.12 -0.4,-0.03 -0.17,-0.04 -0.32,-0.09 -0.27,-0.09 -0.44,-0.01 -0.71,-0.09l-5.2 -1.33c-0.02,-0.01 -0.03,-0.01 -0.05,-0.02l-1.22 -0.46c-0.08,-0.03 -0.09,-0.02 -0.16,-0.04l-0.87 -0.34c-0,-0 -0.12,-0.06 -0.13,-0.07l-0.13 -0.07c-0.04,-0.02 -0.08,-0.04 -0.13,-0.07l-1.62 -0.87c-0.01,-0.01 -0.03,-0.02 -0.04,-0.02l-1.09 -0.73c-0,-0 -0.1,-0.1 -0.1,-0.1 -0.27,-0.27 -0.57,-0.52 -0.76,-0.85 -0.12,-0.2 -0.27,-0.34 -0.35,-0.59 -0.02,-0.07 -0.02,-0.09 -0.05,-0.16 -0.05,-0.14 -0.14,-0.27 -0.12,-0.48l0.08 -0.26c0.01,-0.02 0.01,-0.03 0.02,-0.05l0.19 -0.48c0.01,-0.01 0.02,-0.03 0.02,-0.04l1.52 -1.57c0.01,-0.01 0.03,-0.02 0.04,-0.03l0.23 -0.17c0.01,-0.01 0.03,-0.02 0.04,-0.02l1.12 -0.7c0.01,-0.01 0.03,-0.01 0.05,-0.02 0.01,-0.01 0.03,-0.01 0.05,-0.02 0.01,-0.01 0.03,-0.02 0.05,-0.02 0.02,-0.01 0.07,-0.04 0.09,-0.04l0.27 -0.13c0.01,-0.01 0.03,-0.02 0.04,-0.02l0.13 -0.07c0.02,-0.01 0.07,-0.04 0.09,-0.04l2.83 -1.14c0.02,-0.01 0.03,-0.01 0.05,-0.02 0.02,-0.01 0.03,-0.01 0.05,-0.02l1.78 -0.5c0.02,-0.01 0.03,-0.01 0.05,-0.02l1.08 -0.27c0.02,-0.01 0.03,-0.01 0.05,-0.02l0.34 -0.06c0.02,-0 0.03,-0.01 0.05,-0.02l1.12 -0.22c0.37,-0.04 0.18,-0.04 0.32,-0.08l1.39 -0.23c0.14,-0.05 -0.08,-0.06 0.31,-0.09 0.78,-0.06 0.56,0.14 0.67,-0.13zm6.84 -52.48l3.25 0c0.42,0.02 0.73,0.04 0.81,0.07l0.1 0.04c0.32,0.09 0.83,-0.01 1.12,0.1 0.26,0.09 0.5,0.03 0.76,0.11 0.02,0.01 0.03,0.01 0.05,0.02 0.02,0.01 0.03,0.02 0.05,0.02 0.02,0.01 0.03,0.01 0.05,0.02l3.15 0.82c0,0 0.1,0.03 0.1,0.03l1.32 0.5c0.01,0.01 0.03,0.02 0.04,0.02l1.03 0.45c0.2,0.1 -0.11,-0.06 0.09,0.05l0.59 0.29c0.09,0.05 0.06,0.02 0.13,0.07l0.49 0.31c0.03,0.02 0.08,0.04 0.14,0.07 0.01,0.01 0.03,0.02 0.05,0.02l0.18 0.09c0.01,0.01 0.03,0.02 0.04,0.02l0.31 0.22c0.01,0.01 0.03,0.02 0.04,0.02 0.01,0.01 0.03,0.02 0.04,0.02 0.01,0.01 0.03,0.02 0.04,0.02l0.32 0.22c0.61,0.33 0.44,0.32 0.77,0.51l0.49 0.31c0.01,0.01 0.03,0.02 0.04,0.02 0.17,0.11 0.2,0.2 0.36,0.31 0.09,0.06 0.05,0.02 0.13,0.07 0.23,0.14 0.39,0.39 0.6,0.55l0.51 0.37c0.01,0.01 0.05,0.05 0.07,0.07 0.06,0.06 0.09,0.09 0.17,0.17l1.8 1.83c0.29,0.46 0.51,0.53 0.7,0.85l0.38 0.49c0.06,0.09 0.02,0.05 0.07,0.13l0.2 0.27c0.05,0.08 0.03,0.05 0.07,0.13 0.01,0.01 0.02,0.03 0.02,0.04l1.66 2.65c0.01,0.02 0.04,0.07 0.04,0.09l1.8 4.93c0,0 0.04,0.1 0.04,0.1l0.18 0.7c0.02,0.12 -0,0.19 0.02,0.31l0.09 0.25c0.07,0.26 0.03,0.5 0.12,0.76 0.11,0.32 -0.02,0.74 0.08,1.07l0.11 3.59c0,0.17 0.02,0.51 -0.01,0.66l-0.09 0.24c-0.09,0.32 0.01,0.83 -0.1,1.12 -0.1,0.27 -0.05,0.43 -0.17,0.9l-0.48 2.14c-0.01,0.02 -0.03,0.08 -0.04,0.1l-0.42 1.26c-0.04,0.12 -0.04,0.15 -0.08,0.26 -0.01,0.02 -0.03,0.07 -0.04,0.09l-0.15 0.32c-0.01,0.02 -0.01,0.03 -0.02,0.05l-0.73 1.69c-0.01,0.01 -0.02,0.03 -0.02,0.04l-0.11 0.22c-0.01,0.01 -0.02,0.03 -0.02,0.04l-0.22 0.45c-0.01,0.01 -0.02,0.03 -0.03,0.04l-1.49 2.34c-0.01,0.01 -0.02,0.03 -0.03,0.04l-0.15 0.25c-0.07,0.1 0.01,-0.03 -0.06,0.07l-0.27 0.4c-0.01,0.01 -0.02,0.03 -0.03,0.04 -0.01,0.01 -0.02,0.03 -0.03,0.04l-1.28 1.88c-0.01,0.01 -0.02,0.03 -0.02,0.04l-0.41 0.6c-0.01,0.01 -0.02,0.03 -0.03,0.04l-3.1 4.58c-0.05,0.08 -0.03,0.05 -0.07,0.13l-0.74 1.08c-0.05,0.08 -0.03,0.06 -0.07,0.13l-0.05 0.08c-0.02,0.02 -0.13,0.16 -0.15,0.19l-1.44 2.19c-0.01,0.01 -0.02,0.03 -0.03,0.04 -0.02,0.02 -0.13,0.16 -0.15,0.19l-0.55 0.79c-0.03,0.04 -0.08,0.09 -0.09,0.11 -0.28,0.39 -0.34,0.41 -0.34,0.8 0.26,0 0.54,-0.04 0.79,0.01l0.87 0.21c0.23,0.07 0.51,0.03 0.71,0.09 0.02,0.01 0.07,0.03 0.1,0.04l2.73 0.64c0,0 0.1,0.04 0.1,0.04l0.44 0.1c0.02,0.01 0.03,0.01 0.05,0.02 0.02,0.01 0.03,0.01 0.05,0.02l1.9 0.59c0.02,0.01 0.04,0.01 0.05,0.01l0.77 0.3c0.02,0.01 0.03,0.01 0.05,0.02l1.48 0.6c0.01,0.01 0.03,0.02 0.04,0.02l1.39 0.7c0.06,0.04 0.04,0.03 0.11,0.09l1.9 1.26c0.39,0.24 0.96,0.94 1.29,1.26l0.5 0.71c0.01,0.02 0.04,0.07 0.04,0.09l0.51 1.24c0.01,0.02 0.01,0.03 0.02,0.05 0.14,0.4 0.1,1 0.1,1.45l-0.05 0.49c-0.01,0.02 -0.01,0.03 -0.02,0.05l-0.23 0.71c-0.01,0.02 -0.01,0.03 -0.02,0.05l-0.71 1.17c-0.28,0.44 -0.69,0.79 -1.06,1.16l-0.79 0.63c-0.1,0.06 -0.07,0.03 -0.17,0.1 -0.07,0.04 -0.04,0.03 -0.12,0.09l-0.74 0.47c-0.01,0.01 -0.03,0.01 -0.05,0.02 -0.01,0.01 -0.03,0.01 -0.05,0.02l-0.58 0.36c-0.01,0.01 -0.03,0.02 -0.05,0.02l-2.29 1.07c-0.02,0.01 -0.03,0.01 -0.05,0.02l-1.43 0.52c-0.02,0.01 -0.03,0.01 -0.05,0.02l-0.71 0.23c-0.02,0.01 -0.03,0.01 -0.05,0.02l-0.4 0.13c-0.02,0.01 -0.03,0.01 -0.05,0.02l-2.56 0.67c-0.02,0 -0.04,0.01 -0.05,0.01 -0.02,0 -0.04,0.01 -0.06,0.01l-0.28 0.06c-0.02,0.01 -0.03,0.01 -0.05,0.02l-1.62 0.33c-0.34,0.04 -0.31,0.09 -0.61,0.13 -0.07,0.01 -0.13,0 -0.2,0 -0.41,0.01 -0.38,0.12 -0.81,0.13 -0.36,0.01 -0.31,0.09 -0.61,0.13 -0.04,0.01 -0.15,0.01 -0.19,0.01 -0.13,0 -0.34,-0.02 -0.47,-0 -0.47,0.07 0.03,0.04 -0.35,0.12 -0.3,0.06 -0.58,-0.04 -0.88,0.06l-0.85 0.09c-0.69,-0.01 -0.51,0.06 -0.82,0.12 -0.18,0.04 -0.71,0.01 -0.93,0.01 -0.23,-0 -0.49,-0.03 -0.71,0.03 -0.2,0.06 -0.53,0.09 -0.92,0.11l-2.94 0 -3.53 0c-0.03,-0 -0.06,-0.01 -0.09,-0.01 -0.35,-0.07 0.05,-0.06 -0.35,-0.12 -0.04,-0.01 -0.15,-0.01 -0.19,-0.01 -0.48,-0.01 -1.04,0.1 -1.49,-0.06 -0.44,-0.16 -1,0.03 -1.43,-0.11l-0.14 -0.06c-0.29,-0.08 -0.64,0.02 -0.93,-0.08l-0.14 -0.06c-0.2,-0.06 -0.44,-0 -0.64,-0.03 -0.47,-0.07 0.03,-0.04 -0.35,-0.12 -0.23,-0.05 -0.48,0.02 -0.7,-0.04 -0.42,-0.12 -0.57,-0.07 -0.95,-0.19l-3.97 -0.87c-0.02,-0 -0.04,-0.01 -0.05,-0.01l-0.45 -0.15c-0.02,-0.01 -0.08,-0.03 -0.1,-0.04 -0.02,-0.01 -0.03,-0.01 -0.05,-0.02l-1.8 -0.55c-0.09,-0.03 -0.14,-0.04 -0.2,-0.06l-2.43 -1c-0.01,-0.01 -0.03,-0.02 -0.04,-0.02l-0.4 -0.2c-0.01,-0.01 -0.03,-0.02 -0.04,-0.02 -0.01,-0.01 -0.03,-0.02 -0.04,-0.02l-3.21 -2.18c-0.08,-0.08 -0.14,-0.14 -0.24,-0.24l-0.4 -0.4c-0.08,-0.1 -0.02,-0.02 -0.08,-0.12 -0.01,-0.01 -0.02,-0.03 -0.02,-0.04l-0.34 -0.53c-0,-0 -0.12,-0.15 -0.12,-0.15l-0.16 -0.31c-0.01,-0.03 -0.04,-0.08 -0.07,-0.13 -0.01,-0.01 -0.02,-0.03 -0.02,-0.04l-0.25 -0.75c-0.17,-0.47 -0.13,-1.15 -0.11,-1.65 0.01,-0.29 0.09,-0.4 0.19,-0.69 0.01,-0.02 0.01,-0.03 0.02,-0.05l0.31 -0.76c0.04,-0.07 0.01,-0.02 0.04,-0.09l0.25 -0.43c0.01,-0.02 0.05,-0.06 0.06,-0.08 0.39,-0.56 1.28,-1.49 1.6,-1.69l0.63 -0.45c0.01,-0.01 0.03,-0.02 0.04,-0.02l0.32 -0.22c0.01,-0.01 0.03,-0.02 0.04,-0.02l0.16 -0.1c0.04,-0.03 0.11,-0.09 0.11,-0.09l2.33 -1.24c0.02,-0.01 0.03,-0.01 0.05,-0.02 0.08,-0.03 0.09,-0.02 0.16,-0.04 0.02,-0.01 0.04,-0.01 0.05,-0.02l1.8 -0.69c0.02,-0.01 0.03,-0.01 0.05,-0.02l0.31 -0.16c0.1,-0.04 0.06,-0.02 0.15,-0.05l1.24 -0.37c0.02,-0.01 0.03,-0.01 0.05,-0.02 0.06,-0.02 0.09,-0.03 0.15,-0.05l0.2 -0.07c0.1,-0.03 0.08,-0.01 0.17,-0.03 0.17,-0.03 0.08,-0 0.22,-0.05l4.02 -0.89c0.37,-0.02 0.42,-0.12 0.8,-0.14 0.14,-0.01 0.33,0.01 0.48,0.01 0,-0.38 -0.04,-0.38 -0.37,-0.84 -0.01,-0.01 -0.05,-0.06 -0.06,-0.07 -0.01,-0.01 -0.02,-0.03 -0.03,-0.04l-1.21 -1.75c-0.01,-0.01 -0.02,-0.03 -0.03,-0.04l-1.15 -1.74c-0.01,-0.01 -0.02,-0.03 -0.02,-0.04l-0.24 -0.36c-0.01,-0.01 -0.02,-0.03 -0.03,-0.04 -0.02,-0.03 -0.13,-0.17 -0.15,-0.19l-0.1 -0.17c-0.01,-0.01 -0.02,-0.03 -0.02,-0.04l-3.12 -4.62c-0.02,-0.02 -0.13,-0.16 -0.15,-0.19l-0.12 -0.21c-0.02,-0.02 -0.13,-0.16 -0.15,-0.19l-1.87 -2.77c-0.01,-0.01 -0.02,-0.03 -0.03,-0.04l-0.48 -0.73c-0.01,-0.01 -0.02,-0.03 -0.03,-0.04 -0.01,-0.01 -0.02,-0.03 -0.03,-0.04l-1.58 -2.66c-0.01,-0.01 -0.02,-0.03 -0.02,-0.04l-0.14 -0.27c-0.02,-0.03 -0.04,-0.08 -0.07,-0.13l-0.08 -0.19c-0.01,-0.02 -0.01,-0.03 -0.02,-0.05l-0.06 -0.21c-0.01,-0.02 -0.01,-0.03 -0.02,-0.05l-0.81 -2.02c-0.01,-0.02 -0.01,-0.03 -0.02,-0.05l-0.83 -3.14c-0.06,-0.23 -0,-0.44 -0.08,-0.66 -0.09,-0.28 -0.08,-0.55 -0.08,-0.86l-0.13 -0.55c-0.09,-0.44 -0.01,-2.75 -0.01,-3.35 -0,-1.11 0.1,-0.8 0.14,-1.21 0.04,-0.47 -0.02,-0.46 0.1,-0.91 0.04,-0.15 0.02,-0.15 0.03,-0.31l0.78 -3.19c0.01,-0.02 0.01,-0.03 0.02,-0.05 0.02,-0.06 0.03,-0.09 0.05,-0.15l0.04 -0.1c0.01,-0.02 0.01,-0.03 0.02,-0.05l0.41 -1.07c0.01,-0.02 0.01,-0.03 0.02,-0.05l0.39 -0.89c0.01,-0.01 0.02,-0.03 0.02,-0.04l0.13 -0.28c0.04,-0.12 0.03,-0.14 0.08,-0.26l0.18 -0.36c0.01,-0.01 0.02,-0.03 0.02,-0.04l0.26 -0.48c0.03,-0.04 0.09,-0.11 0.09,-0.11l0.25 -0.49c0.01,-0.01 0.02,-0.03 0.02,-0.05l1.17 -1.79c0.01,-0.01 0.02,-0.03 0.02,-0.04 0.02,-0.03 0.13,-0.17 0.14,-0.19l0.07 -0.13c0.01,-0.01 0.02,-0.03 0.02,-0.04l0.62 -0.8c0.11,-0.14 0.23,-0.2 0.34,-0.34l0.27 -0.41c0,-0 0.1,-0.1 0.1,-0.1 0.4,-0.39 1.66,-1.79 2.07,-2.04 0.34,-0.22 0.22,-0.19 0.59,-0.48 0.1,-0.08 0.02,-0.02 0.12,-0.08 0.02,-0.01 0.07,-0.04 0.09,-0.05 0.1,-0.06 0.02,-0 0.12,-0.08l1.4 -1.09c0.01,-0.01 0.13,-0.06 0.14,-0.07l3.28 -1.77c0.01,-0.01 0.03,-0.02 0.04,-0.02 0.01,-0.01 0.03,-0.02 0.04,-0.02l1.53 -0.63c0.02,-0.01 0.03,-0.01 0.05,-0.02l0.5 -0.17c0.23,-0.08 -0.12,0.04 0.1,-0.03l1.58 -0.44c0,-0 0.1,-0.04 0.1,-0.04 0.02,-0.01 0.03,-0.01 0.05,-0.02l0.65 -0.16c0.11,-0.01 0.23,0 0.33,-0l0.99 -0.22c0.36,-0.12 0.8,0.02 1.16,-0.11l0.1 -0.04c0.02,-0 0.03,-0.01 0.05,-0.01 0.02,-0 0.06,-0.01 0.1,-0.01zm2.04 58.81l-0.27 0c-0,-0.2 -0.06,-0.23 -0.16,-0.38 -0.01,-0.01 -0.02,-0.03 -0.03,-0.04 -0.01,-0.01 -0.02,-0.03 -0.03,-0.04 -0.01,-0.01 -0.02,-0.03 -0.03,-0.04l-1.43 -2.07c-0.01,-0.01 -0.02,-0.03 -0.03,-0.04 -0.01,-0.01 -0.02,-0.03 -0.02,-0.04l-0.49 -0.72c-0.01,-0.01 -0.02,-0.03 -0.03,-0.04 -0.01,-0.01 -0.02,-0.03 -0.02,-0.04l-0.76 -1.13c-0.01,-0.01 -0.02,-0.03 -0.03,-0.04 -0.01,-0.01 -0.02,-0.03 -0.02,-0.04l-2.77 -4.09c-0.01,-0.01 -0.02,-0.03 -0.03,-0.04 -0.01,-0.01 -0.02,-0.03 -0.02,-0.04l-0.07 -0.13c-0.01,-0.01 -0.02,-0.03 -0.03,-0.04l-0.3 -0.44c-0.05,-0.07 -0.01,-0.01 -0.06,-0.07l-0.96 -1.46c-0.01,-0.01 -0.02,-0.03 -0.03,-0.04l-0.83 -1.25c-0.08,-0.1 -0.05,-0.05 -0.1,-0.1l-0.42 -0.59c-0.01,-0.01 -0.02,-0.03 -0.02,-0.04 -0.01,-0.01 -0.02,-0.03 -0.02,-0.04l-1.57 -2.34c-0.05,-0.08 -0.03,-0.06 -0.07,-0.13l-0.51 -0.76c-0.01,-0.01 -0.02,-0.03 -0.02,-0.04l-1.09 -1.54c-0.08,-0.1 -0.02,-0.02 -0.08,-0.12l-0.24 -0.36c-0.01,-0.01 -0.02,-0.03 -0.02,-0.04l-0.07 -0.13c-0.04,-0.07 -0.03,-0.04 -0.09,-0.12 -0.06,-0.08 -0.04,-0.05 -0.09,-0.12l-0.61 -0.94c-0.01,-0.01 -0.02,-0.03 -0.02,-0.04l-0.41 -0.59c-0.01,-0.01 -0.02,-0.03 -0.03,-0.04l-1.05 -1.57c-0.01,-0.01 -0.02,-0.03 -0.03,-0.04l-0.34 -0.53c-0.01,-0.01 -0.02,-0.03 -0.02,-0.04l-0.27 -0.41c-0.05,-0.08 -0.1,-0.13 -0.16,-0.18 -0.05,-0.05 -0.02,0 -0.1,-0.1l-0.32 -0.49c-0.01,-0.01 -0.02,-0.03 -0.03,-0.04 -0.01,-0.01 -0.02,-0.03 -0.02,-0.04 -0.01,-0.01 -0.02,-0.03 -0.02,-0.04l-0.44 -0.64c-0.01,-0.01 -0.02,-0.03 -0.03,-0.04l-0.37 -0.58c-0.01,-0.01 -0.02,-0.03 -0.03,-0.04l-1.05 -1.85c-0.01,-0.01 -0.02,-0.03 -0.02,-0.04l-0.69 -1.66c-0,-0 -0.05,-0.1 -0.07,-0.13l-0.52 -1.63c-0,-0.02 -0.01,-0.04 -0.01,-0.06l-0.47 -1.95c-0.07,-0.22 -0.02,-0.63 -0.09,-0.85 -0.17,-0.5 0.03,-1.13 -0.13,-1.61 -0.11,-0.32 -0.08,-0.98 -0.09,-1.39l0.09 -0.72c0.13,-0.39 -0.04,-0.99 0.09,-1.39 0.18,-0.54 -0.01,-0.2 0.19,-0.95 0.05,-0.17 0.02,-0.21 0.03,-0.38l1.43 -4.42c0.01,-0.02 0.01,-0.03 0.02,-0.05l0.21 -0.53c0.01,-0.01 0.02,-0.03 0.02,-0.04l0.44 -0.84c0.03,-0.04 0.09,-0.11 0.09,-0.11l0.52 -0.89c0,-0 0.04,-0.09 0.04,-0.09l0.96 -1.33c0.01,-0.01 0.05,-0.05 0.07,-0.07l0.91 -1.18c0.13,-0.13 0.23,-0.23 0.37,-0.37 0.46,-0.46 1,-1.14 1.56,-1.47 0.01,-0.01 0.03,-0.02 0.04,-0.02 0.01,-0.01 0.03,-0.02 0.04,-0.03l0.77 -0.65c0.01,-0.01 0.03,-0.02 0.04,-0.03l0.45 -0.35c0.1,-0.06 0.02,0 0.12,-0.08l1.32 -0.9c0.06,-0.04 -0.01,-0.01 0.12,-0.08l6.1 -2.37c0.27,-0.09 0.45,-0.01 0.71,-0.09 0.42,-0.14 0.5,-0.04 0.9,-0.18 0.43,-0.14 0.97,0.04 1.42,-0.06 0.39,-0.08 -0.1,-0.02 0.3,-0.11l1.53 -0.01c0.68,0.1 -0.13,0.13 1.35,0.13 0.31,-0 0.41,0.08 0.62,0.13 0.24,0.05 0.5,-0.02 0.75,0.06l0.2 0.07c0.14,0.03 0.23,0 0.37,0.03l0.74 0.2c0.09,0.03 0.03,0.01 0.16,0.04l3.87 1.38c0.01,0.01 0.03,0.02 0.04,0.02 0.2,0.1 -0.11,-0.06 0.09,0.05l0.87 0.48c0.3,0.23 0.23,0.11 0.48,0.26l0.23 0.17c0.01,0.01 0.03,0.02 0.04,0.03l1.79 1.24c0.25,0.15 0.43,0.4 0.67,0.54 0.58,0.34 1.2,1.11 1.66,1.57l0.84 0.98c0.05,0.05 0.07,0.07 0.1,0.1l0.29 0.38c0.01,0.01 0.02,0.03 0.02,0.04l1.46 2.11c0.01,0.01 0.01,0.03 0.02,0.05l0.93 1.83c0.05,0.15 0,0.02 0.06,0.14l0.36 0.85c0.01,0.02 0.01,0.03 0.02,0.05l0.58 1.58c0.03,0.13 0.02,0.17 0.05,0.29l0.05 0.15c0.01,0.02 0.01,0.03 0.02,0.05 0.01,0.02 0.01,0.03 0.02,0.05l0.31 1.64c0.04,0.21 0.11,0.31 0.12,0.62 0.02,0.42 0.14,0.4 0.14,1.01 -0,0.19 -0.02,0.57 0,0.74 0.1,0.68 0.12,-0.15 0.13,1.35 0,0.56 -0.14,0.8 -0.14,1.41 0.01,1.04 -0.13,0.93 -0.14,1.34l-0.64 2.93c-0.02,0.06 -0.03,0.09 -0.05,0.15l-0.09 0.25c-0.01,0.02 -0.01,0.03 -0.02,0.05l-0.78 1.92c-0.01,0.02 -0.01,0.03 -0.02,0.05l-0.1 0.31c-0.01,0.01 -0.01,0.03 -0.02,0.05l-0.76 1.39c-0.01,0.01 -0.01,0.03 -0.02,0.05 -0.01,0.01 -0.01,0.03 -0.02,0.05l-0.34 0.53c-0.01,0.01 -0.01,0.03 -0.02,0.05l-0.31 0.5c-0.05,0.08 -0.03,0.05 -0.07,0.13l-0.74 1.08c-0.01,0.01 -0.02,0.03 -0.02,0.04l-0.77 1.11c-0,0 -0.06,0.08 -0.09,0.11 -0.01,0.01 -0.02,0.03 -0.03,0.04l-1.26 1.91c-0.02,0.03 -0.04,0.04 -0.06,0.07l-0.37 0.57c-0.01,0.01 -0.02,0.03 -0.02,0.04l-0.81 1.21c-0.01,0.01 -0.02,0.03 -0.02,0.04 -0.01,0.01 -0.02,0.03 -0.03,0.04l-1.97 2.88c-0.01,0.01 -0.02,0.03 -0.02,0.04 -0.01,0.01 -0.02,0.03 -0.03,0.04l-0.24 0.36c-0.01,0.01 -0.02,0.03 -0.03,0.04l-0.22 0.32c-0.01,0.01 -0.02,0.03 -0.02,0.04l-0.71 1.04c-0.01,0.01 -0.02,0.03 -0.02,0.04l-0.34 0.53c-0.01,0.01 -0.02,0.03 -0.03,0.04 -0.01,0.01 -0.02,0.03 -0.03,0.04l-1.16 1.67c-0.04,0.07 -0.03,0.04 -0.09,0.12l-0.21 0.33c-0,0 -0.06,0.08 -0.09,0.11l-0.4 0.61c-0.01,0.01 -0.02,0.03 -0.02,0.04 -0.01,0.01 -0.02,0.03 -0.03,0.04l-0.76 1.13c-0.01,0.01 -0.02,0.03 -0.02,0.04 -0.01,0.01 -0.02,0.03 -0.03,0.04l-0.49 0.72c-0.01,0.01 -0.02,0.03 -0.02,0.04 -0.01,0.01 -0.02,0.03 -0.03,0.04l-1.21 1.75c-0.01,0.01 -0.02,0.03 -0.03,0.04l-0.3 0.44c-0.06,0.08 -0.04,0.05 -0.09,0.12l-0.27 0.4c-0.01,0.01 -0.02,0.03 -0.02,0.04l-0.22 0.32c-0.01,0.01 -0.02,0.03 -0.03,0.04 -0.01,0.01 -0.02,0.03 -0.02,0.04 -0.01,0.01 -0.02,0.03 -0.02,0.04 -0.01,0.01 -0.02,0.03 -0.02,0.04l-0.47 0.68c-0.01,0.01 -0.02,0.03 -0.02,0.04 -0.01,0.01 -0.02,0.03 -0.02,0.04 -0.01,0.01 -0.02,0.03 -0.02,0.04l-0.56 0.85c-0.04,0.06 -0.13,0.17 -0.17,0.23l-0.05 0.09c-0.01,0.01 -0.02,0.03 -0.02,0.04 -0.01,0.01 -0.02,0.03 -0.02,0.04 -0.01,0.01 -0.02,0.03 -0.03,0.04l-1.41 2.03c-0.15,0.25 -0.26,0.15 -0.27,0.54z"/> <path class="fil0" d="M23.57 5.45c-0.08,0.05 0,0.03 -0.15,0.05l-0.65 0.03c-0.39,0.08 0.12,0.05 -0.36,0.11l-0.51 0.09c-0.33,0.1 -0.42,0.03 -0.69,0.32 -0.33,0.35 -0.41,0.37 -0.56,0.86l0 0.44c0.01,0.02 0.01,0.03 0.02,0.05l0.27 0.54c0.18,0.18 0.35,0.37 0.6,0.47 0.01,0.01 0.03,0.01 0.05,0.02 0.25,0.09 0.69,0.09 0.94,0.01 0.71,-0.2 0.43,-0.02 0.95,-0.19 0.31,-0.1 0.83,0.01 1.15,-0.06 0.31,-0.07 0.12,-0.13 0.82,-0.12 0.29,0 0.65,-0.03 0.9,0.05 0.02,0.01 0.03,0.02 0.05,0.02 0.44,0.16 0.94,0.01 1.39,0.15 0.24,0.08 0.55,0.05 0.81,0.13l1.88 0.54c0.02,0.01 0.03,0.01 0.05,0.02l0.35 0.12c0.02,0.01 0.03,0.01 0.05,0.02 0.07,0.02 0.09,0.03 0.16,0.05 0.02,0.01 0.04,0.01 0.05,0.02l1.53 0.76c0.09,0.05 -0,-0 0.09,0.04l0.5 0.31c0.01,0.01 0.03,0.02 0.04,0.03 0.01,0.01 0.03,0.02 0.04,0.02l0.17 0.1c0.01,0.01 0.03,0.02 0.04,0.03l0.56 0.39c0.75,0.48 1.28,1.09 1.61,1.28l0.65 0.69c0.01,0.01 0.02,0.03 0.02,0.04 0.01,0.01 0.02,0.03 0.03,0.04 0.24,0.35 0.62,0.61 0.74,0.81 0.01,0.01 0.02,0.03 0.02,0.04l0.18 0.22c0.05,0.05 0.02,-0 0.1,0.1l0.39 0.61c0.01,0.01 0.02,0.03 0.02,0.04l0.3 0.44c0,0 0.12,0.15 0.12,0.15l0.23 0.44c0.01,0.01 0.02,0.03 0.02,0.04l0.07 0.13c0.03,0.05 0.05,0.1 0.07,0.13l0.09 0.18c0.01,0.01 0.02,0.03 0.02,0.04l0.87 2.16c0.01,0.02 0.01,0.03 0.02,0.05 0.01,0.02 0.01,0.03 0.02,0.05l0.41 1.54c0.02,0.15 -0.01,0.3 0.02,0.45 0.06,0.29 0.13,0.15 0.12,0.82 -0.01,0.69 0.06,0.52 0.12,0.82 0.06,0.28 0.07,1.06 -0.01,1.37 -0,0.02 -0.01,0.03 -0.02,0.05l-0.09 0.31c-0.03,0.31 0.02,0.83 -0.06,1.08 -0.04,0.12 -0.02,-0.14 -0.06,0.21 -0.02,0.15 0.01,0.3 -0.02,0.45l-0.21 0.74c-0.05,0.16 -0.04,0.22 -0.08,0.39 -0,0.02 -0.01,0.03 -0.02,0.05l-0.21 0.6c-0.01,0.02 -0.01,0.04 -0.02,0.05l-0.58 1.5c-0,0 -0.04,0.09 -0.04,0.09 -0.01,0.01 -0.02,0.03 -0.02,0.04l-1.15 2.01c-0.01,0.01 -0.02,0.03 -0.03,0.04 -0.34,0.5 -0.67,0.97 -1.1,1.39l-0.4 0.54c-0.08,0.1 -0.05,0.05 -0.1,0.1l-0.14 0.13c-0.08,0.08 -0.14,0.15 -0.25,0.22l-0.22 0.12c-0.02,0.01 -0.06,0.05 -0.07,0.06l-0.47 0.48c-0.05,0.05 -0,0.02 -0.1,0.1l-0.17 0.1c-0.01,0.01 -0.03,0.02 -0.04,0.02l-0.22 0.18c-0.05,0.05 0,0.02 -0.1,0.1 -0.19,0.15 0.14,-0.08 -0.08,0.06l-0.49 0.32c-0.01,0.01 -0.03,0.02 -0.04,0.02l-1.17 0.72c-0.01,0.01 -0.03,0.02 -0.04,0.02l-0.4 0.2c-0.01,0.01 -0.03,0.02 -0.04,0.02l-0.76 0.38c-0.01,0.01 -0.03,0.02 -0.04,0.02 -0.01,0.01 -0.03,0.01 -0.05,0.02l-0.15 0.05c-0.09,0.03 -0.13,0.04 -0.21,0.06l-2.18 0.64c-0.23,0.05 -0.02,0.07 -0.36,0.11 -0.15,0.02 -0.3,-0.01 -0.45,0.02 -0.39,0.08 0.12,0.05 -0.35,0.12 -0.27,0.04 -0.67,-0.03 -0.94,0.01 -0.36,0.05 -0.28,0.14 -0.81,0.13 -1.42,-0.01 -0.72,-0.15 -1.75,-0.13l-2.94 -0.62c-0.02,-0.01 -0.03,-0.01 -0.05,-0.02l-1.02 -0.33c-0.02,-0.01 -0.03,-0.01 -0.05,-0.02l-1.21 -0.6c-0,-0 -0.09,-0.04 -0.09,-0.04l-2.29 -1.48c-0.1,-0.06 -0.03,-0 -0.12,-0.08 -0.17,-0.13 0.01,0.02 -0.14,-0.13l-1.01 -0.87c-0.03,-0.04 -0.08,-0.09 -0.09,-0.11l-0.17 -0.3c-0.27,-0.34 -0.64,-0.6 -0.89,-1 -0,-0.01 -0.11,-0.13 -0.12,-0.15l-0.53 -0.75c-0.01,-0.01 -0.02,-0.03 -0.02,-0.04 -0.01,-0.01 -0.02,-0.03 -0.03,-0.04l-0.17 -0.23c-0.01,-0.01 -0.02,-0.03 -0.02,-0.04 -0.01,-0.01 -0.02,-0.03 -0.02,-0.04l-0.22 -0.31c-0.01,-0.02 -0.04,-0.07 -0.05,-0.09l-0.89 -1.8c-0.03,-0.08 -0.03,-0.12 -0.06,-0.21 -0.01,-0.02 -0.01,-0.03 -0.02,-0.05l-0.1 -0.3c-0.01,-0.02 -0.01,-0.03 -0.02,-0.05l-0.8 -4.04c-0.13,-0.44 -0.19,-1.1 -0.09,-1.56 0.08,-0.38 0.05,0.12 0.12,-0.35 0.04,-0.27 -0.03,-0.67 0.01,-0.94 0.07,-0.48 0.04,0.03 0.12,-0.35 0.03,-0.15 -0,-0.3 0.02,-0.45l0.15 -0.59c0,-0.02 0.01,-0.04 0.01,-0.05 0,-0.02 0.01,-0.03 0.02,-0.05l0.15 -0.59c0.01,-0.02 0.01,-0.03 0.02,-0.05l1.08 -2.69c0.01,-0.01 0.02,-0.03 0.02,-0.04l0.56 -0.98c0.01,-0.01 0.02,-0.03 0.02,-0.05 0.01,-0.01 0.01,-0.03 0.02,-0.05 0.23,-0.47 0.66,-0.85 0.87,-1.21l0.05 -0.09c0.06,-0.09 0.01,-0.03 0.08,-0.12l0.24 -0.37c0.09,-0.22 0.09,-0.51 0.06,-0.74 -0.02,-0.15 -0.32,-0.7 -0.72,-0.97l-0.17 -0.1c-0.28,-0.13 -0.63,-0.13 -0.91,0 -0.01,0.01 -0.03,0.02 -0.04,0.02 -0.63,0.32 -0.53,0.38 -0.98,0.9l-1.11 1.65c-0.07,0.09 -0.03,0.02 -0.08,0.12l-0.09 0.18c-0.01,0.01 -0.02,0.03 -0.02,0.05l-0.47 0.94c-0.01,0.01 -0.02,0.03 -0.02,0.04l-0.04 0.09c-0.01,0.01 -0.02,0.03 -0.02,0.04 0,0 -0.04,0.09 -0.04,0.09l-0.47 1.08c-0.01,0.02 -0.01,0.03 -0.02,0.05l-0.4 1.21c-0.01,0.02 -0.01,0.03 -0.02,0.05l-0.64 3.13c-0.1,0.3 -0.1,3.37 0,3.67 0.16,0.47 0.04,0.38 0.09,0.78 0.07,0.48 0.04,-0.03 0.12,0.35 0.06,0.31 0.01,0.37 0.12,0.76l0.2 0.88c0,0.02 0.01,0.03 0.02,0.05 0,0.02 0.01,0.03 0.02,0.05l0.04 0.1c0.01,0.02 0.01,0.03 0.02,0.05l0.2 0.61c0.01,0.02 0.01,0.03 0.02,0.05l0.12 0.35c0.02,0.06 0.02,0.04 0.04,0.1l0.81 1.88c0.01,0.02 0.02,0.05 0.04,0.09l0.11 0.22c0,0 0.04,0.09 0.04,0.09l0.71 1.17c0.01,0.01 0.02,0.03 0.03,0.04l0.12 0.21c0.01,0.01 0.02,0.03 0.03,0.04 0.03,0.04 0.09,0.11 0.09,0.11l0.12 0.21c0.01,0.01 0.02,0.03 0.03,0.04l1.81 2.23c0.08,0.09 0.01,0.01 0.1,0.1 0.06,0.06 0.07,0.07 0.13,0.13 0.09,0.09 0.01,0.02 0.1,0.1l0.44 0.3c0.27,0.26 0.51,0.59 0.84,0.78l2.6 1.7c0.01,0.01 0.03,0.02 0.04,0.02l0.63 0.31c0.01,0.01 0.03,0.02 0.04,0.02l0.22 0.11c0.01,0.01 0.03,0.02 0.04,0.02l0.94 0.41c0.01,0.01 0.03,0.02 0.05,0.02l0.81 0.27c0.02,0.01 0.03,0.01 0.05,0.02 0.02,0.01 0.03,0.01 0.05,0.02l0.35 0.12c0.02,0.01 0.03,0.01 0.05,0.02 0.08,0.03 0.13,0.04 0.2,0.06l1.27 0.34c0.23,0.06 0.45,0 0.67,0.08l0.38 0.09c0.67,0.02 0.42,0.07 0.81,0.13 0.11,0.02 0.35,0 0.47,0 0.71,-0.01 2.52,0.12 3.14,-0.09l0.9 -0.11c0.07,-0.03 -0.07,-0.01 0.15,-0.05l6.22 -2.33 0.85 -0.56c0.01,-0.01 0.03,-0.02 0.04,-0.03 0.01,-0.01 0.03,-0.02 0.04,-0.03l0.54 -0.4c0.26,-0.25 0.21,-0.07 1.01,-0.88 0.09,-0.1 0.01,-0.02 0.1,-0.1l0.12 -0.09c0.01,-0.01 0.03,-0.02 0.04,-0.02 0.08,-0.05 0.04,-0.02 0.13,-0.07l0.25 -0.22c0.05,-0.05 0.08,-0.09 0.13,-0.14l1.9 -2.34c0.05,-0.08 0.03,-0.05 0.07,-0.13l0.74 -1.08c0.01,-0.01 0.02,-0.03 0.03,-0.04l0.25 -0.49c0.02,-0.04 0.04,-0.08 0.07,-0.13l0.94 -2.09c0.01,-0.02 0.01,-0.03 0.02,-0.05l0.07 -0.2c0.01,-0.02 0.01,-0.03 0.02,-0.05l0.13 -0.4c0.02,-0.06 0.03,-0.09 0.05,-0.15 0.01,-0.02 0.01,-0.03 0.02,-0.05 0.01,-0.02 0.01,-0.03 0.02,-0.05l0.34 -1.21c0.02,-0.1 0,-0.06 0.03,-0.17l0.04 -0.1c0.01,-0.02 0.01,-0.03 0.02,-0.05 0.01,-0.02 0.01,-0.03 0.02,-0.05 0.05,-0.19 0.01,-0.26 0.03,-0.44 0.02,-0.31 0.13,-0.41 0.13,-0.81 0,-0.05 -0,-0.15 0.01,-0.2 0.08,-0.61 0.13,0.24 0.13,-1.55 0,-0.66 0.11,-1.87 -0.09,-2.47 -0.06,-0.18 -0.02,-0.48 -0.05,-0.69 -0.07,-0.48 -0.04,0.03 -0.12,-0.35 -0.06,-0.31 -0.01,-0.37 -0.12,-0.76l-0.04 -0.23c-0,-0.02 -0.01,-0.04 -0.01,-0.06l-0.89 -2.67c-0.01,-0.02 -0.01,-0.03 -0.02,-0.05l-0.08 -0.26c-0.01,-0.01 -0.01,-0.03 -0.02,-0.05l-1.08 -2.02c-0.01,-0.01 -0.02,-0.03 -0.02,-0.04l-0.19 -0.28c-0.01,-0.01 -0.02,-0.03 -0.03,-0.04l-0.97 -1.38c-0.01,-0.01 -0.02,-0.03 -0.02,-0.04l-0.7 -0.78c-0.08,-0.08 -0.07,-0.05 -0.14,-0.13 -0.25,-0.3 -0.19,-0.33 -0.63,-0.78l-0.22 -0.19c-0.4,-0.25 -0.65,-0.65 -1.04,-0.92l-0.13 -0.07c-0.18,-0.1 -0.2,-0.21 -0.49,-0.38l-0.4 -0.27c-0,-0 -0.09,-0.05 -0.09,-0.05l-1.89 -1.14c-0.05,-0.03 -0.13,-0.06 -0.18,-0.09l-0.13 -0.07c0,0 -0.09,-0.04 -0.09,-0.04l-0.27 -0.13c-0.01,-0.01 -0.03,-0.02 -0.04,-0.02l-0.41 -0.19c-0.08,-0.03 -0.09,-0.02 -0.16,-0.04l-0.42 -0.19c-0.01,-0.01 -0.03,-0.01 -0.05,-0.02l-0.86 -0.28c-0.02,-0.01 -0.03,-0.01 -0.05,-0.02l-1.83 -0.53c-0.23,-0.06 -0.45,-0 -0.67,-0.08 -0.02,-0.01 -0.03,-0.02 -0.05,-0.02 -0.02,-0.01 -0.03,-0.02 -0.05,-0.02 -0.24,-0.08 -0.5,-0.01 -0.75,-0.06 -0.38,-0.08 0.12,-0.05 -0.35,-0.12 -0.1,-0.02 -3.46,-0.09 -3.7,0.06z"/> <path class="fil0" d="M25.73 30.41l-0.27 0c-0.05,-0.14 -0.14,-0.2 -0.22,-0.25 -0.42,-0.25 -0.63,-0.56 -0.9,-0.72l-0.09 -0.05c-0.03,-0.02 -0.12,-0.1 -0.14,-0.13 -0.02,-0.02 -0.11,-0.11 -0.13,-0.14 -0.02,-0.02 -0.11,-0.12 -0.13,-0.14l-0.84 -0.71c-0.25,-0.23 -0.37,-0.21 -0.94,-0.81 -0.24,-0.24 -0.5,-0.36 -0.74,-0.61l-0.64 -0.64c-0.08,-0.08 -0.05,-0.07 -0.13,-0.14 -0.25,-0.22 -0.68,-0.43 -0.94,-0.81l-0.1 -0.17c-0.19,-0.32 -0.54,-0.49 -0.74,-0.81l-0.39 -0.62c-0.01,-0.01 -0.02,-0.03 -0.03,-0.04l-0.54 -1.01c-0.13,-0.36 -0.13,-0.67 -0.21,-0.93 -0.23,-0.7 -0.03,-0.67 0.04,-1.2 0.01,-0.09 0,-0.17 0.01,-0.26 0.04,-0.32 0.26,-0.74 0.35,-0.93l0.41 -0.66c0.1,-0.1 0.15,-0.15 0.24,-0.23 0.04,-0.04 0.09,-0.09 0.13,-0.14 0.22,-0.23 0.41,-0.3 0.7,-0.45l0.26 -0.14c0.01,-0.01 0.03,-0.02 0.05,-0.02 0.23,-0.09 0.44,-0.05 0.68,-0.13 0.02,-0.01 0.03,-0.02 0.05,-0.02 0.02,-0.01 0.03,-0.01 0.05,-0.02 0.41,-0.12 1.16,0.13 1.51,0.25l0.33 0.21c0.01,0.01 0.03,0.02 0.04,0.03l1.46 1.77c0.01,0.01 0.02,0.03 0.02,0.04 0.01,0.01 0.02,0.03 0.02,0.04l0.36 0.85c0.27,0.68 1.03,0.97 1.73,0.78l0.32 -0.15c0.27,-0.18 0.45,-0.41 0.55,-0.73l0.23 -0.58c0.01,-0.01 0.02,-0.03 0.02,-0.04 0.01,-0.01 0.02,-0.03 0.02,-0.04l0.22 -0.45c0.01,-0.01 0.02,-0.03 0.02,-0.04l0.07 -0.13c0.01,-0.01 0.02,-0.03 0.02,-0.05 0.01,-0.02 0.03,-0.07 0.04,-0.09l1.64 -1.45c0.02,-0.01 0.03,-0.01 0.05,-0.02 0.02,-0.01 0.03,-0.01 0.05,-0.02 0.36,-0.12 0.8,-0.28 1.19,-0.22 0.31,0.05 0.27,0.1 0.61,0.13 0.28,0.03 0.51,0.19 0.76,0.31l0.45 0.29c0.21,0.21 0.46,0.4 0.63,0.65l0.18 0.36c0.01,0.01 0.02,0.03 0.02,0.04 0.01,0.01 0.02,0.03 0.02,0.04 0.08,0.17 -0.04,-0.08 0.05,0.09 0.01,0.02 0.09,0.17 0.09,0.18l0.06 0.14c0.01,0.02 0.01,0.03 0.02,0.05 0.03,0.09 0.04,0.13 0.07,0.2l0.08 0.39c0.03,0.33 0.16,0.6 0.14,0.95l-0.59 1.9 -0.55 0.86c-0.32,0.46 -0.3,0.41 -0.82,0.93 -0.05,0.05 -0.02,0 -0.1,0.1l-1.18 1.18c-0.3,0.3 -0.59,0.69 -0.95,0.94l-1.1 0.85c-0.37,0.29 -0.2,0.29 -0.9,0.78l-1.32 1.17c-0.03,0.02 -0.35,0.13 -0.44,0.37zm0 -13.32l-0.27 0c-0.11,-0.3 -0.75,-0.83 -0.94,-1.01l-0.27 -0.2c-0.01,-0.01 -0.03,-0.02 -0.04,-0.02l-1.65 -0.83c-0.02,-0.01 -0.08,-0.03 -0.1,-0.04l-0.64 -0.17c-0.36,-0.08 -1.69,-0.05 -1.96,0.03 -0.02,0.01 -0.03,0.01 -0.05,0.02 -0.02,0.01 -0.03,0.01 -0.05,0.02l-1.43 0.45c-0.01,0.01 -0.03,0.02 -0.04,0.02l-0.67 0.41c-0.01,0.01 -0.03,0.02 -0.04,0.03 -0.01,0.01 -0.03,0.02 -0.04,0.03l-0.41 0.27c-0.07,0.05 -0.1,0.09 -0.18,0.16l-0.67 0.68c-0.15,0.19 0.08,-0.14 -0.05,0.08l-0.61 0.94c-0.01,0.01 -0.02,0.03 -0.02,0.04l-0.46 1.09c-0.1,0.3 -0.11,0.18 -0.16,0.51l-0.04 0.37c-0,0.02 -0.01,0.03 -0.02,0.05 -0.01,0.02 -0.01,0.03 -0.02,0.05 -0.16,0.46 -0.12,1.9 0.02,2.34l0.15 0.73c0.01,0.02 0.01,0.03 0.02,0.05l0.24 0.7c0.01,0.01 0.02,0.03 0.02,0.04l0.7 1.32c0.12,0.13 0.03,-0 0.17,0.17 0.15,0.19 -0.08,-0.13 0.05,0.08l1.47 1.83c0.01,0.02 0.06,0.07 0.09,0.11l2.12 1.85c0.07,0.05 0.1,0.09 0.18,0.16 0.08,0.08 0.1,0.11 0.17,0.17 0.06,0.06 0.1,0.1 0.17,0.17 0.13,0.13 -0.06,-0.06 0.07,0.07l0.41 0.33c0.01,0.01 0.03,0.02 0.04,0.02l0.81 0.67c0.01,0.01 0.03,0.02 0.04,0.03l0.77 0.65c0.01,0.01 0.03,0.02 0.04,0.03l1.62 1.41c0.26,0.15 0.47,0.46 0.76,0.59 0.42,0.2 1.16,0.13 1.53,-0.25l0.36 -0.32c0,-0 0.09,-0.05 0.09,-0.05l0.46 -0.42c0.07,-0.07 0.11,-0.11 0.18,-0.16 0.66,-0.46 0.76,-0.69 0.98,-0.83 0.35,-0.22 0.55,-0.52 0.85,-0.7l0.09 -0.05c0.37,-0.21 0.5,-0.49 0.81,-0.67 0.34,-0.2 0.56,-0.59 0.9,-0.78 0.16,-0.09 0.05,-0 0.2,-0.13 0.06,-0.06 0.08,-0.08 0.17,-0.17 0.32,-0.33 0.61,-0.71 0.98,-0.97l0.89 -0.79c0.23,-0.36 0.56,-0.66 0.79,-0.89l0.18 -0.23c0.05,-0.08 0.01,-0.04 0.07,-0.13 0.11,-0.17 0.2,-0.2 0.31,-0.36l0.97 -1.66c0.01,-0.01 0.02,-0.03 0.02,-0.04 0.01,-0.02 0.04,-0.07 0.05,-0.09l0.39 -1.43c0.19,-0.72 0.11,-1.11 0.11,-1.92 0,-0.1 0,-0.22 -0.02,-0.32l-0.32 -1.22c-0.01,-0.02 -0.01,-0.03 -0.02,-0.05l-0.48 -1.07c-0.01,-0.01 -0.02,-0.03 -0.02,-0.05 -0.01,-0.01 -0.01,-0.03 -0.02,-0.05 -0.01,-0.01 -0.01,-0.03 -0.02,-0.05l-0.52 -0.76c-0.29,-0.42 -0.81,-0.83 -1.05,-0.97l-0.85 -0.56c-0.01,-0.01 -0.03,-0.01 -0.05,-0.02l-0.72 -0.29c-0.02,-0.01 -0.03,-0.01 -0.05,-0.02l-0.3 -0.1c-0.02,-0.01 -0.03,-0.01 -0.05,-0.02l-0.22 -0.05c-0.02,-0 -0.04,-0 -0.06,-0.01l-0.16 -0.04c-0.02,-0.01 -0.03,-0.01 -0.05,-0.02l-0.1 -0.04c-0.3,-0.08 -1.57,-0.07 -1.85,-0.02l-0.65 0.16c-0.02,0 -0.03,0.01 -0.05,0.02l-0.9 0.31c-0,0 -0.13,0.07 -0.13,0.07 -0.01,0.01 -0.03,0.02 -0.04,0.03 -0.3,0.2 -0.69,0.41 -0.96,0.66 -0.25,0.24 -0.88,0.78 -0.97,1.05z"/> <path class="fil0" d="M16.98 8.14c-0.01,0.01 -0.04,0 -0.05,0.02 -0.01,0.02 -0.04,0.02 -0.05,0.02 -0.09,0.05 -0.05,0.02 -0.13,0.07l-0.25 0.22c-0.11,0.11 0.03,-0.06 -0.1,0.1 -0.33,0.42 -0.34,1.18 -0.06,1.6l0.22 0.25c0.12,0.11 0.15,0.17 0.4,0.27 0.2,0.08 0.58,0.08 0.82,0.06 0.1,-0.01 0.03,0 0.12,-0.01 0.59,-0.12 0.95,-0.67 0.96,-1.26l-0.02 -0.46c-0.04,-0.18 -0.03,-0.09 -0.05,-0.15l-0.12 -0.22c-0.34,-0.51 -0.92,-0.7 -1.56,-0.57 -0.15,0.03 -0.07,0 -0.15,0.05z"/> </g> </g> </svg>